<svg xmlns="http://www.w3.org/2000/svg" viewBox="0 0 86.277 335.11">
  <defs>
    <filter id="a" width="1.354" height="1.072" x="-.177" y="-.036" color-interpolation-filters="sRGB">
      <feGaussianBlur stdDeviation="16.032"/>
    </filter>
    <filter id="b" width="1.398" height="1.398" x="-.199" y="-.199" color-interpolation-filters="sRGB">
      <feGaussianBlur stdDeviation="7.815"/>
    </filter>
  </defs>
  <path d="M-322.85-61.915c-59.962 0-108.59 95.286-108.59 212.84 0 112.65 42.04 160.25 98.312 164.03-9.56 146.88-25.45 418.37-29.72 657.41 26.668 40.857 53.334 42.07 80 0-2.965-255.23-22.238-514.22-33.968-657.5 56.067-4.484 102.53-52.24 102.53-163.94 0-117.56-48.6-212.84-108.56-212.84z" filter="url(#a)" transform="translate(137.852 29.45) scale(.29335)" fill="rgba(0, 0, 0, 0.12)"/>
  <path fill="#eee" d="M43.143 11.287c-17.59 0-31.857 27.953-31.857 62.44 0 33.048 12.333 47.012 28.84 48.118-2.804 43.088-7.466 122.73-8.718 192.85 7.822 11.987 15.645 12.343 23.468 0-.87-74.87-6.524-150.847-9.965-192.877 16.45-1.316 30.08-15.325 30.08-48.09 0-34.486-14.256-62.44-31.85-62.44z"/>
  <path fill="#fff" d="M-780 270.93c0 26.036-21.107 47.143-47.143 47.143s-47.143-21.107-47.143-47.143 21.107-47.143 47.143-47.143S-780 244.894-780 270.93z" opacity=".75" transform="matrix(.40542 0 0 .72548 378.115 -126.84)" filter="url(#b)"/>
  <path fill="#fff" d="M45.427 228.592c0 47.818-.97 86.58-2.165 86.58s-2.164-38.765-2.164-86.58c0-47.818.97-86.58 2.164-86.58s2.165 38.765 2.165 86.58z" opacity=".75"/>
</svg>
